<?xml version="1.0" standalone="no"?>
<!DOCTYPE svg PUBLIC "-//W3C//DTD SVG 20010904//EN"
 "http://www.w3.org/TR/2001/REC-SVG-20010904/DTD/svg10.dtd">
<svg version="1.0" xmlns="http://www.w3.org/2000/svg"
 width="260.000000pt" height="260.000000pt" viewBox="0 0 260.000000 260.000000"
 preserveAspectRatio="xMidYMid meet">
<metadata>
Created by potrace 1.14, written by Peter Selinger 2001-2017
</metadata>
<g transform="translate(0.000000,260.000000) scale(0.100000,-0.100000)"
fill="#000000" stroke="none">
<path d="M450 1811 l-35 -29 -3 -431 -3 -431 -57 0 c-70 0 -106 -17 -110 -51
-5 -40 34 -61 173 -95 48 -12 1387 -16 1399 -4 5 5 22 10 37 10 14 0 46 7 69
15 31 11 85 15 192 15 165 0 212 13 236 65 9 18 12 125 12 373 l0 348 -29 34
-29 35 -223 4 c-154 2 -226 7 -231 15 -4 6 -8 26 -8 44 0 44 -23 85 -55 100
-19 9 -190 12 -663 12 l-638 0 -34 -29z m1323 -39 c16 -14 17 -44 15 -426 l-3
-411 -660 0 -660 0 -2 400 c-2 308 0 406 10 425 l13 25 604 5 c333 3 619 3
635 1 17 -2 38 -11 48 -19z m515 -168 l22 -15 0 -348 0 -349 -25 -16 c-19 -12
-50 -16 -137 -16 l-113 0 -28 35 -28 35 144 0 c98 0 147 4 155 12 18 18 16
576 -2 601 -12 15 -35 17 -220 17 l-206 0 0 23 c0 13 3 27 7 30 3 4 97 7 207
7 166 0 205 -3 224 -16z m-136 -109 c10 -4 12 -53 10 -250 l-3 -245 -149 0
-150 0 0 250 0 250 139 0 c77 0 145 -2 153 -5z m-1218 -651 c3 -9 6 -20 6 -25
0 -12 -472 -12 -502 0 -13 6 -40 12 -60 16 -21 3 -38 10 -38 15 0 6 114 10
294 10 259 0 295 -2 300 -16z m970 9 c4 -4 -22 -15 -56 -25 -52 -14 -105 -17
-300 -18 -131 0 -238 2 -238 5 0 3 6 14 12 25 12 19 24 20 294 20 154 0 284
-3 288 -7z"/>
<path d="M1087 1764 c-14 -14 15 -44 42 -44 28 0 47 22 35 41 -6 10 -67 12
-77 3z"/>
<path d="M508 1689 c-17 -9 -18 -37 -18 -357 0 -257 3 -351 12 -360 9 -9 163
-12 630 -12 600 0 618 1 628 19 6 13 10 145 10 360 0 326 -1 341 -19 351 -27
14 -1219 13 -1243 -1z m1130 -361 l-3 -303 -537 -3 -538 -2 0 305 0 305 540 0
540 0 -2 -302z"/>
</g>
</svg>
